<svg xmlns="http://www.w3.org/2000/svg" viewBox="0 0 49 50">
  <defs>
    <style>
      .cls-1 {
        fill: #f9c53a;
      }

      .cls-2 {
        fill: #5f4526;
      }
    </style>
  </defs>
  <g id="Слой_2" data-name="Слой 2">
    <g id="Слой_1-2" data-name="Слой 1">
      <g>
        <path class="cls-1" d="M0,0H47a2,2,0,0,1,2,2V48a2,2,0,0,1-2,2H0a0,0,0,0,1,0,0V0A0,0,0,0,1,0,0Z"/>
        <path class="cls-2" d="M19.86,33.73a.76.76,0,0,0,0,1.05.69.69,0,0,0,.52.22.71.71,0,0,0,.51-.22l9.26-9.26a.74.74,0,0,0,0-1.05l-9.26-9.26a.74.74,0,0,0-1,1.05L28.59,25Z"/>
      </g>
    </g>
  </g>
</svg>
