<svg xmlns="http://www.w3.org/2000/svg" viewBox="0 0 150 30.77">
  <defs>
    <style>
      .cls-1 {
        fill: #fff;
      }
    </style>
  </defs>
  <g id="Слой_2" data-name="Слой 2">
    <g id="Слой_1-2" data-name="Слой 1">
      <g>
        <path class="cls-1" d="M150,30.47h-6.55c-.3,0-.37-.19-.48-.38l-5.31-8.85-.23-.38v.6c0,2.84,0,5.68,0,8.51,0,.4-.09.51-.49.51-1.81,0-3.61,0-5.41,0-.34,0-.42-.1-.42-.43q0-14,0-28c0-.35.1-.45.43-.5q2.72-.44,5.42-.91c.38-.07.47,0,.47.41,0,5.82,0,11.64,0,17.46v.64c.16-.24.26-.38.34-.52q2.61-4.12,5.2-8.25a.66.66,0,0,1,.65-.36c2.1,0,4.2,0,6.31,0,0,.22-.13.34-.22.48Q146.85,15,144,19.56a.63.63,0,0,0,0,.8q2.9,4.79,5.75,9.59Z"/>
        <path class="cls-1" d="M9.45,22.85c0,2.4,0,4.79,0,7.18,0,.36-.1.45-.45.45-1.77,0-3.54,0-5.31,0-.43,0-.56-.1-.56-.55,0-4.72,0-9.44,0-14.16,0-.44-.12-.57-.55-.54-.74,0-1.47,0-2.2,0-.3,0-.42-.05-.42-.39,0-1.48,0-3,0-4.45,0-.32.08-.44.43-.43.75,0,1.5,0,2.24,0,.42,0,.5-.13.49-.51a36.58,36.58,0,0,1,.07-3.92,5.73,5.73,0,0,1,2.1-4.34A6.54,6.54,0,0,1,9.1,0c1.58,0,3.16,0,4.74,0,.26,0,.36.06.36.34,0,1.52,0,3,0,4.55,0,.3-.11.38-.39.37-.89,0-1.79,0-2.68,0-1.16,0-1.6.45-1.65,1.58-.05.94,0,1.89,0,2.83,0,.34.19.29.4.29,1.32,0,2.65,0,4,0,.31,0,.4,0,.36.4-.19,1.5-.34,3-.49,4.52,0,.29-.12.36-.4.35-1.13,0-2.27,0-3.4,0-.36,0-.45.09-.45.45C9.46,18.07,9.45,20.46,9.45,22.85Z"/>
        <path class="cls-1" d="M39.38,20.22c0,.85,0,1.69,0,2.54,0,1.9.78,2.62,2.69,2.72a23.69,23.69,0,0,0,5.38-.42c.36-.06.72-.1,1.08-.19s.27,0,.27.24v4.6a.25.25,0,0,1-.23.29c-3.29.71-6.6,1.18-9.93.26a7.13,7.13,0,0,1-5.45-6.52,30.44,30.44,0,0,1,.07-7.45A7.19,7.19,0,0,1,39.48,10a18.78,18.78,0,0,1,6.85,0c.72.11,1.43.29,2.16.41.27,0,.32.16.32.41,0,1.47,0,2.93,0,4.4,0,.28,0,.38-.36.33A27.33,27.33,0,0,0,42.61,15c-.4,0-.8.05-1.19.1a2.1,2.1,0,0,0-2,2.21c0,1,0,2,0,3C39.4,20.22,39.39,20.22,39.38,20.22Z"/>
        <path class="cls-1" d="M89,16.66a14,14,0,0,0-.2-2.33A4.83,4.83,0,0,0,84.88,10a15,15,0,0,0-7.95.4V9.87c0-3,0-5.93,0-8.9,0-.38-.09-.45-.45-.38-1.81.31-3.61.62-5.42.9-.35.06-.46.18-.46.54,0,1.8,0,3.6,0,5.4,0,7.33,0,14.65,0,22,0,.46.14.58.55.64a58.32,58.32,0,0,0,5.89.67,24.77,24.77,0,0,0,6.14-.35c3.66-.79,5.47-2.87,5.72-6.57C89.07,21.41,89,19,89,16.66Zm-6.37,6.56c-.12,1.5-.91,2.14-2.56,2.32a17.08,17.08,0,0,1-2.77,0c-.28,0-.37-.12-.37-.41,0-1.5,0-3,0-4.5s0-2.93,0-4.4a.59.59,0,0,1,.42-.63A6,6,0,0,1,80.87,15a1.87,1.87,0,0,1,1.76,1.84A46.55,46.55,0,0,1,82.62,23.22Z"/>
        <path class="cls-1" d="M68.4,16.09a6.5,6.5,0,0,0-4.77-5.85,13.91,13.91,0,0,0-6.81-.3c-3.74.71-5.62,2.71-6,6.5a43.89,43.89,0,0,0,0,6.88,7.69,7.69,0,0,0,1.38,4.12,7.92,7.92,0,0,0,6,3.19A30.74,30.74,0,0,0,67.6,30c.29-.06.42-.15.41-.48,0-1.44,0-2.87,0-4.31,0-.3-.05-.47-.39-.35a1.88,1.88,0,0,1-.33.05,34.91,34.91,0,0,1-7.43.55c-2.13-.08-2.84-.81-2.88-2.94,0-.41.12-.5.51-.5,1.75,0,3.51,0,5.26,0h5.36c.2,0,.42.06.41-.29A53.79,53.79,0,0,0,68.4,16.09Zm-7.51,1.76H59.56c-.75,0-1.5,0-2.25,0-.24,0-.34-.07-.33-.32,0-.4,0-.8.05-1.19a2,2,0,0,1,1.58-1.81,4.23,4.23,0,0,1,2,0,1.88,1.88,0,0,1,1.48,1.51c0,.1.05.19.06.28C62.4,17.85,62.39,17.85,60.89,17.85Z"/>
        <path class="cls-1" d="M108.94,15.82a6.6,6.6,0,0,0-5.34-5.7,14.47,14.47,0,0,0-7.42.06A6.78,6.78,0,0,0,91,15.69a23.33,23.33,0,0,0-.22,4.62c0,1.13,0,2.38.09,3.64A6.91,6.91,0,0,0,96,30.17a14.45,14.45,0,0,0,7.33.18,6.65,6.65,0,0,0,5.62-5.76A29,29,0,0,0,108.94,15.82Zm-6.07,7a2.4,2.4,0,0,1-2.52,2.63,4.68,4.68,0,0,1-1.24-.06,2.27,2.27,0,0,1-2-2.36V20.2c0-.89,0-1.79,0-2.68A2.35,2.35,0,0,1,99.45,15a6.14,6.14,0,0,1,1,0,2.4,2.4,0,0,1,2.37,2.64Z"/>
        <path class="cls-1" d="M129.13,16a6.64,6.64,0,0,0-5.46-5.91,14.73,14.73,0,0,0-6.83,0,6.89,6.89,0,0,0-5.7,5.93,27.26,27.26,0,0,0-.17,4.26,31,31,0,0,0,.13,4,6.78,6.78,0,0,0,4.83,5.9,14.21,14.21,0,0,0,7.46.28c3.25-.69,5.29-2.66,5.74-6A30.62,30.62,0,0,0,129.13,16ZM123,20.23h0c0,1,.06,2,0,3a2.2,2.2,0,0,1-2,2.2,4.28,4.28,0,0,1-1.71,0,2.13,2.13,0,0,1-2-2.12,48.43,48.43,0,0,1,0-6.26,2.12,2.12,0,0,1,1.92-2,4.21,4.21,0,0,1,2.17.09A2.17,2.17,0,0,1,123,17a3.13,3.13,0,0,1,0,.43C123,18.38,123,19.31,123,20.23Z"/>
        <path class="cls-1" d="M31,18.06a20.3,20.3,0,0,0-.19-2.81,5.17,5.17,0,0,0-4-4.77,12.44,12.44,0,0,0-2.5-.42c-2.53-.16-5.07,0-7.6-.09-.32,0-.4.1-.43.4-.13,1.48-.28,3-.45,4.42,0,.37.05.46.41.45h5.46a6.86,6.86,0,0,1,1.75.2,1.5,1.5,0,0,1,1.19,1.28,15.78,15.78,0,0,1,.09,1.81c0,.3-.09.38-.38.38q-1.89,0-3.78,0a14.39,14.39,0,0,0-2.85.26,4.54,4.54,0,0,0-3.88,3.88,8.83,8.83,0,0,0,0,2.81,5.32,5.32,0,0,0,4.47,4.76,10.29,10.29,0,0,0,3.67-.11,12.58,12.58,0,0,0,3.6-1.31c.06.33.13.63.16.92s.16.42.49.41q2.17,0,4.35,0c.41,0,.5-.12.5-.51C31,26,31,22.05,31,18.06Zm-6.31,7.11a.29.29,0,0,1-.19.34,6,6,0,0,1-3,.75,1.71,1.71,0,0,1-1.32-2.59,1.18,1.18,0,0,1,.89-.5,15.24,15.24,0,0,1,1.91-.06c.48,0,1,0,1.43,0,.23,0,.31.08.31.31C24.67,24,24.67,24.58,24.67,25.17Z"/>
      </g>
    </g>
  </g>
</svg>
