<svg xmlns="http://www.w3.org/2000/svg" viewBox="0 0 150 42.55">
  <defs>
    <style>
      .cls-1 {
        fill: #fff;
      }
    </style>
  </defs>
  <g id="Слой_2" data-name="Слой 2">
    <g id="Слой_1-2" data-name="Слой 1">
      <path class="cls-1" d="M7.72.15A14.07,14.07,0,0,0,.21,9.62C-1.14,15.4,4.48,17.84,4.94,17s-1-1.26-1.33-4.26C3.2,8.91,5,4.59,7.26,2.69c.42-.35.4.14.4,1.05,0,1.62-.09,16.19-.09,19.23a27.45,27.45,0,0,1-.47,6.7c-.31,1.3-.81,2.18-.43,2.51s2.22-.52,3.26-2a10.88,10.88,0,0,0,1.76-6.1c.09-2.74.09-7.08.09-9.56,0-2.27,0-8.93,0-12.93C11.73.64,9-.39,7.72.15ZM149.33,21.76c-.45,0-.65.46-.82,1.23-.58,2.69-1.2,3.3-2,3.3s-1.67-1.34-1.88-4a90.17,90.17,0,0,1,.07-9.78c0-.79-.17-1.57-2.29-2.34-.91-.33-2.23-.82-2.89.77a40.11,40.11,0,0,0-2.76,9.5c0,.08-.1.09-.11-.08a72.7,72.7,0,0,1-.39-7.7,2.3,2.3,0,0,0-1.14-2.2c-.62-.39-2.5-1.08-3.17-.26a17,17,0,0,0-2,4.63c-.57,1.74-1,2.92-1,2.92s0-4.7,0-6.49a.93.93,0,0,0-.6-.94,12.55,12.55,0,0,0-2.38-.48c-.65,0-.81.36-.81.89,0,.07-.1,6.19-.1,10.47v.6c-.36,2-1.51,4.64-2.78,4.64s-1.85-1.12-1.85-6.22c0-3,.09-4.27.13-6.42,0-1.24.08-2.2.07-2.41,0-.67-1.15-1-1.69-1.12a4.82,4.82,0,0,0-1.36-.16.85.85,0,0,0-.88.83v.73a4.9,4.9,0,0,0-2.43-2,4.69,4.69,0,0,0-5.41,2,12.3,12.3,0,0,0-2.2,6.29,18.53,18.53,0,0,0,.23,5.71c-.45,1.92-1.27,2.71-2.18,2.71-1.31,0-2.26-2.14-2.15-5.85A33.71,33.71,0,0,1,103.73,14a2.13,2.13,0,0,0-.42-2.14,2.67,2.67,0,0,0-2.63-.43c-.93.22-2.26.45-3.47.63a7.52,7.52,0,0,0,.13-.8c.32-2.7-2.62-2.49-3.55-1.62a3.33,3.33,0,0,0-1.09,2.21,2.62,2.62,0,0,0,1.19,2.55,26.41,26.41,0,0,1-2.78,6.91A27.81,27.81,0,0,1,89.38,24V23c0-4.46,0-8,.07-9.24s.08-2.17.07-2.39c0-.48-.29-.67-.88-.9a6.38,6.38,0,0,0-1.77-.39c-.81-.07-1.29.36-1.28.87v.68a5,5,0,0,0-2.43-2,4.69,4.69,0,0,0-5.41,2A13.38,13.38,0,0,0,75.55,18a19.13,19.13,0,0,0,.11,5.37c-.3,1.5-1.17,3.07-2.16,3.07-1.26,0-2-1.12-2-6.22,0-3,.09-4.27.13-6.43,0-1.24.07-2.19.07-2.4,0-.67-1.15-1-1.69-1.13a5.09,5.09,0,0,0-1.41-.14.9.9,0,0,0-.83.79v.76a4.88,4.88,0,0,0-2.44-2,4.69,4.69,0,0,0-5.4,2A11.83,11.83,0,0,0,57.75,18a22.2,22.2,0,0,0-.17,2.73c-.39,2.41-2.13,5.18-3.55,5.18-.84,0-1.63-1.61-1.63-5.05,0-4.59.29-11.12.33-11.75l2.15,0c.9,0,1.71,0,2.9,0,.6,0,1.18-2.18.56-2.45a22,22,0,0,0-3-.24c-.66,0-2.5-.15-2.5-.15S53,1.82,53,1.36s-.46-.58-.74-.7a10.32,10.32,0,0,0-2-.58c-1-.21-1.46,0-1.55.85C48.53,2.22,48.46,6,48.46,6l-4-.14c-.68,0-1.43,3-.47,3L48.24,9s-.06,6.63-.06,8.68c0,.22,0,.43,0,.63A10,10,0,0,1,45,23.87c.53-2.4-.55-4.2-2.48-5.73-.72-.56-2.13-1.62-3.7-2.79a9.56,9.56,0,0,0,1.72-2.71c.57-1.28.6-2.75-.81-3.07a4.2,4.2,0,0,0-4.81,3,3.46,3.46,0,0,0,.66,3.55l.2.24c-.52,1-1.25,2.37-1.86,3.43C32.27,22.72,31,25,30,25c-.77,0-.76-2.35-.76-4.56,0-1.9.14-4.76.25-7.72a2.15,2.15,0,0,0-1.27-2,5.72,5.72,0,0,0-2.18-.91c-.92,0-3.58.13-6.1,7.4-.32.92-.94,2.58-.94,2.58l.06-8.74a.62.62,0,0,0-.36-.54,6.26,6.26,0,0,0-2.56-.7c-.48,0-.72.22-.72.67l-.09,13.68a20.51,20.51,0,0,0,.13,2.78A2.93,2.93,0,0,0,16,28.16a1.43,1.43,0,0,0,.84.54c.36.07,2.36.33,2.46-.44a27.59,27.59,0,0,1,1.18-5.58c1.63-5.74,3.75-8.53,4.75-9.53.17-.17.37-.18.36.1,0,1.26-.19,4.4-.29,7.07-.27,7.14,1,8.47,2.89,8.47,1.42,0,3.42-1.41,5.57-5l3.57-6c.65.6,1.38,1.25,2.11,1.94,1.7,1.61,2.25,3.14,1.88,4.59C41,25.46,39.93,26.6,38,25.49c-.55-.32-.79-.57-1.34-.94a1,1,0,0,0-1-.05,3.72,3.72,0,0,0-1.34,2.06c-.23.82.59,1.25,1.44,1.63a11.37,11.37,0,0,0,3.31.66c3.91.13,7-1.89,9.23-7.1.39,4.5,2.05,7,4.94,7,1.93,0,3.86-2.49,4.71-4.95A8.81,8.81,0,0,0,59,26.45c2.23,3.52,6.54,2.76,8.71-.23A5.46,5.46,0,0,0,68.49,25a4.08,4.08,0,0,0,3.89,3.81c1.46,0,3-.69,4-3.07a7.41,7.41,0,0,0,.4.74c2.23,3.53,6.54,2.77,8.71-.22l.27-.39.06,1.86-2,1.83c-3.35,3.06-5.89,5.39-6.08,8.1-.23,3.45,2.56,4.73,4.68,4.9a6,6,0,0,0,5.36-2.8c1.05-1.53,1.73-4.83,1.68-8.08,0-1.31-.06-3-.08-4.74a37.78,37.78,0,0,0,3.71-5.1,38.57,38.57,0,0,0,3.48-7.45s1.24,0,2.56-.08c.42,0,.54.06.46.37S98,21.09,99.4,25.13a5.06,5.06,0,0,0,4.51,3.65,4.48,4.48,0,0,0,3.79-2.88c.1.19.2.38.3.55,2.23,3.52,6.53,2.76,8.71-.23a9,9,0,0,0,.77-1.25,4.23,4.23,0,0,0,4,3.82c1.35,0,2.64-.55,3.69-3a10.82,10.82,0,0,0,.22,2.26c.06.17.45.38.73.49a5.51,5.51,0,0,0,3,.14c.33-.06.58-.32.62-1a39.16,39.16,0,0,1,.57-6.94,20,20,0,0,1,2.13-5.84c.22-.4.47-.46.48,0,0,.85.06,3.35.41,6.71a15.48,15.48,0,0,0,.86,4.4,2.43,2.43,0,0,0,2.43,1.39c.48,0,1.48-.14,1.39-1a26.35,26.35,0,0,1,.92-6.59,30.81,30.81,0,0,1,1.89-5.31c.12-.29.18-.06.18,0-.07,1.64-.24,7,.43,9.93.91,4,3.52,4.42,4.44,4.42,1.94,0,3.54-1.49,4.07-5.38.13-.94-.06-1.66-.63-1.66ZM67.75,19.35a12.61,12.61,0,0,1-1.16,5c-1.17,2.27-3.48,3-4.5-.29a17.73,17.73,0,0,1-.18-7.32c.46-2.59,1.59-4.42,3.37-4.24S68,15.06,67.75,19.35Zm17.8,0a14,14,0,0,1-1.16,5c-1.14,2.28-3.51,3-4.5-.29a16.58,16.58,0,0,1-.18-7c.44-2.38,1.48-4.58,3.37-4.58S85.81,14.55,85.55,19.38ZM86,32.67c0,3.55-.59,6.67-1.79,7.57-1.7,1.29-4,.32-3.51-2.27.42-2.29,2.4-4.64,5.3-7.5C86,30.47,86,31.12,86,32.67ZM116.74,19.4a12.55,12.55,0,0,1-1.16,5c-1.13,2.28-3.49,3-4.5-.29a18.7,18.7,0,0,1-.18-7.27c.4-2.55,1.52-4.47,3.37-4.29S116.94,15.06,116.74,19.4Z"/>
    </g>
  </g>
</svg>
